<svg id="Calque_1" data-name="Calque 1" xmlns="http://www.w3.org/2000/svg" viewBox="0 0 439.33 424"><defs><style>.cls-1{fill:#122116;}.cls-2,.cls-4{fill:#f4dec6;}.cls-3{fill:#16281a;}.cls-4{font-size:200px;font-family:Calibri-Bold, Calibri;font-weight:700;}.cls-5{font-size:187px;}.cls-6{font-size:157px;}</style></defs><title>logo</title><path class="cls-1" d="M683,274a211,211,0,0,1-41.49,126q-5.84,7.88-12.35,15.17A211.45,211.45,0,0,1,471,486c-117.08,0-212-94.92-212-212a211.16,211.16,0,0,1,54.2-141.56c.43-.49.87-1,1.3-1.45q7.29-7.95,15.34-15.15,7-6.21,14.44-11.81A211,211,0,0,1,471,62C588.08,62,683,156.92,683,274Z" transform="translate(-259 -62)"/><path class="cls-2" d="M675,282a211,211,0,0,1-48.57,135q-2.57,3.12-5.27,6.14A211.15,211.15,0,0,1,480,477c-117.08,0-212-94.92-212-212a211,211,0,0,1,44.2-129.56q2-2.57,4-5.07,2.73-3.33,5.59-6.53A211.64,211.64,0,0,1,463,70C580.08,70,675,164.92,675,282Z" transform="translate(-259 -62)"/><path class="cls-3" d="M682,277a211,211,0,0,1-41.49,126q-6.71,7.34-14.08,14A211.2,211.2,0,0,1,484,472c-117.08,0-212-94.92-212-212a211,211,0,0,1,41.5-126c.91-1.22,1.82-2.43,2.75-3.62q2.73-3.33,5.59-6.53A211.2,211.2,0,0,1,343.28,107,211,211,0,0,1,470,65C587.08,65,682,159.92,682,277Z" transform="translate(-259 -62)"/><text class="cls-4" transform="translate(41.75 262.69)">&lt; <tspan class="cls-5" x="144.82" y="0">/</tspan><tspan class="cls-6" x="225.18" y="0"> </tspan><tspan x="260.67" y="0">&gt;</tspan></text></svg>